<?xml version="1.0" standalone="no"?>
<!DOCTYPE svg PUBLIC "-//W3C//DTD SVG 1.1//EN" "http://www.w3.org/Graphics/SVG/1.1/DTD/svg11.dtd" >
<svg xmlns="http://www.w3.org/2000/svg">
<metadata>Generated by IcoMoon</metadata>
<defs>
<font id="alpadia" horiz-adv-x="1024">
<font-face units-per-em="1024" ascent="960" descent="-64" />
<missing-glyph horiz-adv-x="1024" />
<glyph unicode="&#x20;" horiz-adv-x="512" d="" />
<glyph unicode="&#xe001;" glyph-name="people" d="M746 103.387l-201.471 111.602c74.88 58.912 95.216 174.688 95.216 239.601v135.12c0 89.472-118.88 189.12-238.288 189.12-119.376 0-241.408-99.664-241.408-189.12v-135.12c0-59.024 24.976-178.433 100.624-239.089l-206.672-112.112s-54-24.064-54-54.064v-81.088c0-29.84 24.224-54.063 54-54.063h692c29.808 0 54.031 24.224 54.031 54.063v81.088c0 31.808-54.032 54.063-54.032 54.063zM736.033-21.828h-672.031v57.216c4.592 3.344 11.008 7.216 16.064 9.536 1.504 0.688 3.008 1.408 4.432 2.225l206.688 112.096c18.848 10.224 31.344 29.184 33.248 50.527s-7.008 42.256-23.712 55.664c-53.664 43.024-76.656 138.32-76.656 189.152v135.12c0 45.968 86.656 125.12 177.408 125.12 92.432 0 174.288-78.064 174.288-125.12v-135.12c0-50.128-15.568-145.84-70.784-189.28-16.912-13.312-26-34.224-24.224-55.664 1.808-21.44 14.256-40.528 33.12-50.849l201.472-111.6c1.776-0.976 4.032-2.031 5.904-2.848 4.72-2 10.527-5.344 14.783-8.288v-57.888zM969.97 262.731l-204.465 111.601c74.88 58.912 98.224 174.688 98.224 239.601v135.12c0 89.472-121.872 190.128-241.28 190.128-77.6 0-156.943-42.192-203.119-96.225 26.336-1.632 55.376-1.664 80.464-9.664 33.712 26.256 76.368 41.872 122.656 41.872 92.432 0 177.279-79.056 177.279-126.128v-135.12c0-50.128-18.56-145.84-73.775-189.28-16.912-13.312-26-34.224-24.224-55.664 1.808-21.44 14.256-40.528 33.12-50.849l204.464-111.6c1.776-0.976 4.032-2.031 5.904-2.848 4.72-2 10.527-5.344 14.783-8.288v-56.912h-129.184c19.504-14.72 25.408-35.775 32.977-63.999h106.192c29.808 0 54.031 24.224 54.031 54.063v80.096c-0.016 31.84-54.048 54.096-54.048 54.096z" />
<glyph unicode="&#xe005;" glyph-name="user2" d="M511.728 874.667c108.672 0 223.92-91.534 223.92-159.854v-159.92c0-61.552-25.6-179.312-94.256-233.376-17.504-13.776-26.592-35.681-23.968-57.809 2.624-22.16 16.592-41.313 36.848-50.625l278.496-132.064c2.176-0.992 26.688-5.104 26.688-39.345l0.032-62.464-895.488-0.048v64.944c0 25.44 19.088 33.425 26.72 36.944l281.024 132.624c20.16 9.248 34.065 28.32 36.769 50.32 2.72 22-6.16 43.84-23.456 57.712-66.481 53.376-97.456 170.704-97.456 233.185v159.92c0.016 66.848 116.416 159.855 224.128 159.854zM511.728 938.669c-141.312 0-288.127-117.938-288.127-223.857v-159.92c0-69.872 31.888-211.248 121.392-283.088l-281.040-132.64s-63.952-28.496-63.952-63.968v-96.032c0-35.344 28.64-63.968 63.951-63.968h895.552c35.344 0 63.968 28.624 63.968 63.968v96.032c0 37.6-63.968 63.968-63.968 63.968l-278.496 132.064c88.656 69.776 118.656 206.849 118.656 283.665v159.92c0 105.92-146.64 223.855-287.936 223.855v0z" />
<glyph unicode="&#xe009;" glyph-name="social-twitter" d="M684.4 779.979c52.88 0 100.621-21.636 134.253-56.372 41.84 8.096 81.28 22.848 116.721 43.279-13.712-41.632-42.88-76.56-80.815-98.655 37.12 4.368 72.656 13.904 105.632 28.16-24.72-35.744-55.84-67.216-91.775-92.368 0.336-7.632 0.528-15.344 0.528-23.023 0-235.728-185.008-507.615-523.312-507.615-103.84 0-200.56 29.632-281.903 80.224 14.368-1.68 29.008-2.527 43.84-2.527 86.16 0 165.504 28.496 228.464 76.4-80.528 1.376-148.496 53.008-171.808 123.84 11.216-2.096 22.752-3.216 34.624-3.216 16.72 0 33.008 2.16 48.399 6.256-84.128 16.336-147.536 88.448-147.536 174.929v2.288c24.816-13.376 53.152-21.408 83.345-22.336-49.376 32.032-81.84 86.561-81.84 148.465 0 32.72 9.088 63.376 24.912 89.632 90.689-107.872 226.208-178.912 379.088-186.384-3.152 13.024-4.784 26.784-4.784 40.624 0 98.544 82.352 178.4 183.967 178.4zM960.189 696.358v0zM684.397 843.975c-125.664 0-229.773-91.809-245.806-210.433-102.816 20.656-196.32 75.088-263.504 154.944-12.192 14.512-30.16 22.815-48.977 22.815-1.664 0-3.344-0.064-5.023-0.192-20.592-1.648-39.12-13.12-49.776-30.784-22.32-37.024-34.097-79.44-34.097-122.656 0-28.848 5.184-56.943 15.008-83.216-10.464-11.632-16.496-26.848-16.496-42.912v-2.288c0-62.688 24.784-120.864 65.936-164.464-2.368-10.976-1.84-22.464 1.776-33.472 14.192-43.184 40.032-80.399 73.536-108.751-22.496-5.008-45.712-7.536-69.408-7.536-12.528 0-24.721 0.688-36.257 2.097-2.56 0.32-5.088 0.433-7.632 0.433-26.88 0-51.28-16.944-60.336-42.784-9.936-28.32 1.089-59.712 26.561-75.568 94.528-58.816 203.712-89.872 315.712-89.872 364.032 0 583.008 284.976 587.264 563.344 29.792 24.656 56.128 53.185 78.448 85.152 8.128 10.688 12.96 24.032 12.96 38.496 0 21.776-10.895 41.024-27.487 52.593 7.184 24.624-1.009 51.28-21.009 67.568-11.68 9.504-26 14.336-40.4 14.336-11.008 0-22.032-2.816-31.968-8.561-21.152-12.192-43.776-21.841-67.601-28.785-43.105 32.432-96.545 50.496-151.425 50.497z" />
<glyph unicode="&#xe00a;" glyph-name="social-tumblr" d="M528.016 874.923l-0.002-223.871h224.32v-95.968h-223.328l-0.32-278.528c0-51.776 2.688-85.009 8.16-99.745 8.528-23.248 39.568-53.008 97.185-53.008 44.688 0 104.977 13.44 150.16 47.248v-149.312c-37.68-17.968-72.72-25.216-103.248-32.464-30.56-7.216-63.663-10.848-99.151-10.848-39.536 0-153.664 1.088-200.496 120.399-8.432 21.472-12.655 52.655-12.655 93.472v362.624h-128.848l0.624 98.128c42.656 0 170.624 25.904 170.624 221.872zM528.014 938.924l-116.976 0.002c-35.344 0-64-28.656-64-64 0-146.496-81.632-157.872-106.624-157.872-35.216 0-63.84-28.464-64-63.68l-0.624-98.128c-0.096-17.024 6.624-33.376 18.624-45.472 12.032-12.064 28.336-18.849 45.376-18.849h64.848v-298.624c0-49.376 5.6-87.632 17.088-116.88 28.848-73.44 97.376-161.009 260.064-161.009 40.288 0 78.592 4.224 113.872 12.56l7.056 1.664c29.872 7.024 68.032 15.776 109.008 35.313 22.288 10.624 36.464 33.088 36.464 57.776v149.312c0 24.224-13.68 46.367-35.344 57.215-9.056 4.56-18.88 6.783-28.656 6.783-13.568 0-27.057-4.32-38.337-12.752-38.096-28.528-86.848-34.496-111.808-34.496-25.6 0-35.119 9.28-37.215 11.744-1.088 5.024-4.128 23.776-4.128 77.009l0.224 214.528h159.408c35.344 0 64 28.656 64 64v95.968c0 35.344-28.656 64-64 64h-160.32v159.888c0 35.344-28.656 64-64 64v0z" />
<glyph unicode="&#xe00b;" glyph-name="social-facebook" d="M581.76 858.171c3.808 0 5.999-0.159 5.999-0.159h83.568l-0.432-96h-83.008c-45.68 0-44.624-39.008-44.624-39.008v-152.192h161.632l-22.56-95.872h-139.6v-479.776h-95.904l-0.064 479.776h-127.408l-0.256 95.872h127.712v149.184c0.016 130.080 108.048 138.176 134.944 138.176zM671.327 858.012v0zM581.76 922.172c-23.008 0-67.97-3.809-110.562-29.473-40.32-24.256-88.368-73.936-88.368-172.688v-85.184h-63.712c-17.008 0-33.312-6.784-45.344-18.816-12-12.064-18.72-28.368-18.655-45.408l0.256-95.872c0.128-35.248 28.752-63.776 64-63.776h63.408l0.064-415.776c0-35.344 28.656-64 64-64h95.904c35.344 0 64 28.656 64 64v415.776h75.6c28.4 0 53.408 18.72 61.408 45.968l22.56 95.872c5.68 19.344 1.903 40.256-10.192 56.368-12.064 16.16-31.057 25.664-51.217 25.664h-97.632v63.152l63.632 0.032c35.216 0 63.84 28.464 64 63.712l0.432 92.752c0.064 1.184 0.097 2.336 0.097 3.536 0 35.344-28.592 64-63.936 64h-81.936c-1.84 0.096-4.496 0.16-7.807 0.161z" />
<glyph unicode="&#xe00f;" glyph-name="screen-tablet" d="M832.144 938.667h-640.288c-53.024 0-96-42.976-96-96v-832c0-53.024 42.976-96 96-96h640.288c53.024 0 96 42.976 96 96v832c0 53.024-42.976 96-96 96zM864.144 10.667c0-17.664-14.336-32-32-32h-640.288c-17.664 0-32 14.336-32 32v832c0 17.664 14.336 32 32 32h640.288c17.664 0 32-14.336 32-32v-832zM512.048 138.491c-35.28 0-63.84-28.592-63.84-63.824s28.56-63.841 63.84-63.841c35.264 0 63.84 28.608 63.84 63.841s-28.576 63.824-63.84 63.824zM576.048 842.667h-128c-17.664 0-32-14.336-32-32s14.336-32 32-32h128c17.664 0 32 14.336 32 32s-14.336 32-32 32z" />
<glyph unicode="&#xe013;" glyph-name="notebook" d="M849.152 938.667h-637.999c-46 0-66.032-34-66.032-66v-127.312h-34.928c-17.311 0-31.344-14.032-31.344-31.345s14.032-31.344 31.344-31.344h34.928v-128.752h-31.936c-17.313 0-31.345-14.032-31.345-31.344s14.032-31.345 31.344-31.345h31.936v-129.44h-32.624c-17.311 0-31.344-14.032-31.344-31.344s14.032-31.344 31.344-31.344h32.624v-128.464h-32.624c-17.311 0-31.344-14.032-31.344-31.344s14.032-31.344 31.344-31.344h32.624v-129.28c0-53.024 41.536-64 64.528-64h639.504c53.024 0 96 42.976 96 96v832c0 53.024-42.96 96-96 96zM209.121-21.333l-0.001 129.279h33.344c17.312 0 31.344 14.032 31.344 31.344s-14.032 31.345-31.344 31.345h-33.344v128.464h33.344c17.312 0 31.344 14.032 31.344 31.344s-14.032 31.344-31.344 31.344h-33.344v129.44h34.032c17.313 0 31.345 14.032 31.345 31.345s-14.032 31.344-31.344 31.344h-34.032v128.752h31.024c17.312 0 31.344 14.032 31.344 31.344s-14.032 31.345-31.344 31.345h-31.024v127.312c0 0.752 0.064 1.376 0.16 1.936 0.496 0.032 1.12 0.064 1.872 0.064h510v-896h-512.032zM881.152 10.666c0-17.664-14.336-32-32-32h-64v896h64c17.664 0 32-14.336 32-32v-832z" />
<glyph unicode="&#xe019;" glyph-name="graduation" d="M990.848 242.363v258.144l16.096 8.496c10.464 5.44 17.056 16.225 17.184 28.032 0.128 11.776-6.256 22.688-16.592 28.368l-481.44 257.6c-9.632 5.28-21.28 5.248-30.977-0.096l-478.8-257.92c-10.192-5.68-16.496-16.464-16.432-28.16s6.496-22.4 16.816-27.969l210.384-111.984c-2.64-4.656-4.271-9.968-4.271-15.695v-270.784c0-9.12 3.904-17.84 10.721-23.904 6.944-6.16 73.44-60.096 276.752-60.096 202.592 0 270.88 50.976 278 56.783 7.44 6.064 11.744 15.152 11.744 24.784v277.728c0 4.496-0.944 8.769-2.608 12.641l129.424 68.368v-224.512c-18.976-11.103-31.84-31.472-31.84-55.023 0-35.344 28.656-64 64-64s64 28.656 64 64c0 23.696-13.040 44.144-32.16 55.2zM736.031 126.299c-25.152-12.096-91.712-35.904-225.744-35.904-134.88 0-199.936 25.344-223.472 37.536v237.136l207.808-110.624c4.72-2.56 9.968-3.84 15.184-3.84 5.088 0 10.192 1.216 14.816 3.664l211.408 111.664v-239.632zM510.063 318.857l-411.6 218.561 412.32 220.976 413.6-220.336z" />
<glyph unicode="&#xe020;" glyph-name="energy" d="M595.344 873.947v0zM595.344 873.947l-72.207-379.377 261.584-0.88-356.064-514.304 72.208 417.376-261.568 0.912zM595.393 937.946c-1.728 0-3.455-0.063-5.151-0.19-11.296-0.912-18.784-4.688-27.664-10.656-4.928-3.28-9.439-7.28-13.392-11.937-1.168-1.376-2.272-2.816-3.297-4.288l-358.608-474.608c-14.16-19.408-16.24-45.024-5.36-66.433 10.864-21.408 32.832-34.977 56.912-35.152l184.736-1.344-58.080-342.192c-5.52-29.408 10.16-58.721 37.76-70.528 8.224-3.536 16.863-5.216 25.392-5.216 20.112 0 36.641 9.408 49.041 26.4l359.056 514.304c14.16 19.408 16.225 45.057 5.36 66.433-10.864 21.408-32.832 34.977-56.912 35.152l-184.736 0.32 57.456 300.88c1.2 4.848 1.824 9.872 1.824 15.056 0 34.624-27.568 62.848-62.064 63.968-0.768 0.032-1.52 0.032-2.271 0.032v0z" />
<glyph unicode="&#xe021;" glyph-name="emotsmile" d="M781.264 331.515c-16.256 7.28-35.089-0.064-42.257-16.192-0.656-1.424-66.128-144.208-229.439-146.128-1.008 0-2-0.032-3.008-0.032-153.664 0-219.937 140.368-222.688 146.4-7.312 16-26.191 23.12-42.319 15.872-16.096-7.28-23.248-26.208-15.968-42.336 3.408-7.568 85.376-183.937 280.848-183.937 1.28 0 2.592 0.032 3.872 0.032 203.872 2.4 283.84 176.656 287.12 184.064 7.248 16.16-0.032 35.072-16.16 42.256zM511.999 938.666c-282.784 0-512-229.216-512-512s229.216-512 512-512 512 229.216 512 512-229.216 512-512 512zM511.999-21.334c-247.024 0-448 200.976-448 448s200.976 448 448 448 448-200.976 448-448-200.976-448-448-448zM351.503 458.842c35.264 0 63.84 28.592 63.84 63.824s-28.576 63.824-63.84 63.824c-35.28 0-63.84-28.592-63.84-63.824s28.56-63.824 63.84-63.824zM671.503 458.842c35.264 0 63.84 28.592 63.84 63.824s-28.576 63.824-63.84 63.824c-35.28 0-63.84-28.592-63.84-63.824s28.56-63.824 63.84-63.824z" />
<glyph unicode="&#xe033;" glyph-name="map2" d="M993.184 803.659l-320.961 133.069-319.44-126.432-321.968 126.368c-2.752 0.816-5.439 1.12-7.968 1.12-13.136 0.064-22.848-9.743-22.848-24.495v-830c0-17.568 13.872-35.872 30.816-40.56l322.336-127.184 319.008 129.504 321.024-126.128c2.752-0.752 5.44-1.12 7.969-1.12 13.12 0 22.848 9.744 22.848 24.496v820.736c0 17.568-13.872 35.889-30.816 40.625zM383.999 757.528l256 100.304v-761.504l-256-101.184v762.384zM63.999 851.976l256-94.577v-761.76l-256 104.272v752.064zM959.999 0.662l-256 96.384v759.824l256-110.384v-745.824z" />
<glyph unicode="&#xe041;" glyph-name="directions" d="M1017.060 752.603l-99.696 111.343c-6.064 6.848-14.784 10.752-23.937 10.752h-350.256v33.968c0 16.56-14.336 30-32 30s-32-13.44-32-30v-33.968h-255.808c-17.68 0-32-14.32-32-32v-223.664c0-17.68 14.32-32 32-32h255.808v-64.096h-348.592c-9.152 0-17.872-3.904-23.936-10.752l-99.68-113.312c-10.752-12.128-10.752-30.368 0-42.496l99.68-112.288c6.112-6.848 14.784-9.744 23.936-9.744h348.592v-289.68c0-16.56 14.336-30 32-30s32 13.44 32 30v289.68h256.464c17.68 0 32 14.32 32 32v224.608c0 17.68-14.32 32-32 32h-256.464v64.096h350.256c9.152 0 17.872 3.904 23.937 10.752l99.696 112.32c10.736 12.112 10.736 30.352 0 42.481v0.001zM767.647 298.346h-622.688l-71.28 79.28 71.28 81.312h622.688v-160.592zM879.039 651.034h-623.68v159.664h623.68l71.28-79.344z" />
<glyph unicode="&#xe043;" glyph-name="diamond" d="M1018.72 643.195l-139.872 267.442c-8.16 15.6-29.264 28.352-46.848 28.352h-321.936c-0.352 0.016-0.703 0.111-1.055 0.127-0.288 0-0.561-0.112-0.849-0.128h-316.16c-17.6 0-38.752-12.72-47.024-28.256l-139.504-262.288c-8.288-15.536-6.624-39.937 3.632-54.257l480.016-669.152c5.152-7.184 12-10.815 18.832-10.815 6.784 0 13.584 3.536 18.768 10.592l487.904 664.256c10.384 14.192 12.256 38.544 4.096 54.128zM942.367 651.038h-171.456l68.656 196.608zM575.343 874.99h205.968l-63.888-182.928zM668.238 651.038h-297.647l140.672 202.096zM313.887 681.582l-64.177 193.408h198.816zM680.75 587.038l-172.032-492.544-163.456 492.544h335.488zM436.926 107.582l-343.936 479.456h184.832zM748.542 587.038h185.168l-352.976-480.56zM188.478 856.254l68.096-205.216h-177.248z" />
<glyph unicode="&#xe044;" glyph-name="cup" d="M832.56 522.875c-8.336 0-35.202 0.16-64.306 0.368l0.112 63.968c0 35.344-28.656 64-64 64l-640.496 0.16c-35.344 0-64-28.656-64-64v-480.944c0-106.032 85.968-192 192-192h384.656c106.032 0 191.008 85.968 191.008 192l0.064 32.848c29.024-0.224 58.608-0.399 64.977-0.399 105.776 0 191.568 85.040 191.568 191.072-0.016 106.048-85.808 192.928-191.584 192.928zM703.533 106.427c0-70.592-56.399-128-127.008-128h-384.656c-70.592 0-128 57.408-128 128l-0.096 480.944 640.592-0.192zM832.559 201.946c-6.352 0-35.888 0.191-64.863 0.399l0.448 256.816c29.12-0.208 56.048-0.368 64.399-0.368 73.12 0 128.624-54.544 128.624-127.84s-55.488-129.008-128.608-129.008zM575.87 714.905c17.664 0 32 14.336 32 32v160c0 17.664-14.336 32-32 32s-32-14.336-32-32v-160c0-17.68 14.336-32 32-32zM191.87 714.905c17.664 0 32 14.336 32 32v160c0 17.664-14.336 32-32 32s-32-14.336-32-32v-160c0-17.68 14.336-32 32-32zM383.87 714.905c17.664 0 32 14.336 32 32v160c0 17.664-14.336 32-32 32s-32-14.336-32-32v-160c0-17.68 14.336-32 32-32z" />
<glyph unicode="&#xe04c;" glyph-name="book-open" d="M952.080 937.115l-423.041-114.592c-10.752-2.88-34.096-2.848-44.815 0.16l-412.144 114.208c-36.784 10.128-72.416-16.4-72.416-54.273v-778.112c0-32.096 24.336-62.784 55.312-71.408l412.16-114.224c11.024-3.056 25.217-4.752 39.937-4.752 10.096 0 25.008 0.784 38.72 4.528l423.024 114.592c31.056 8.4 55.504 39.024 55.504 71.248v778.128c0.016 37.84-35.616 64.464-72.24 54.496zM479.999-18.276l-408.928 113.056c-3.088 0.848-7.408 6.496-7.408 9.712v768.032l403.472-111.536c3.904-1.088 8.288-1.936 12.864-2.655v-776.608zM960.335 104.491c0-3.152-5.184-8.655-8.256-9.503l-408.080-110.528v775.92c0.592 0.144 1.2 0.224 1.792 0.384l414.528 112.128v-768.4h0.016zM641.999 572.364c2.88 0 5.81 0.367 8.689 1.184l223.936 63.024c17.024 4.816 26.944 22.465 22.16 39.473s-22.561 26.88-39.473 22.16l-223.936-63.024c-17.024-4.816-26.944-22.465-22.16-39.473 3.968-14.128 16.815-23.344 30.783-23.344zM642.001 380.363c2.88 0 5.81 0.368 8.689 1.185l223.936 63.024c17.024 4.816 26.944 22.465 22.16 39.473s-22.561 26.88-39.473 22.16l-223.936-63.024c-17.024-4.816-26.944-22.465-22.16-39.457 3.968-14.128 16.815-23.36 30.783-23.361zM642.003 188.363c2.88 0 5.81 0.368 8.689 1.185l223.936 63.024c17.024 4.816 26.944 22.465 22.16 39.473s-22.561 26.88-39.473 22.16l-223.936-63.024c-17.024-4.816-26.944-22.465-22.16-39.473 3.968-14.112 16.815-23.345 30.783-23.345zM394.629 635.18l-223.934 63.025c-16.912 4.72-34.689-5.152-39.473-22.16s5.12-34.656 22.16-39.473l223.936-63.024c2.88-0.816 5.808-1.185 8.688-1.185 13.968 0 26.815 9.216 30.783 23.344 4.784 16.992-5.12 34.656-22.16 39.473zM394.631 443.181l-223.934 63.025c-16.912 4.72-34.689-5.152-39.473-22.16s5.12-34.656 22.16-39.473l223.936-63.024c2.88-0.816 5.808-1.185 8.688-1.185 13.968 0 26.815 9.216 30.783 23.344 4.784 16.992-5.12 34.656-22.16 39.473zM394.633 251.182l-223.934 63.025c-16.912 4.72-34.689-5.152-39.473-22.16s5.12-34.656 22.16-39.473l223.936-63.024c2.88-0.816 5.808-1.185 8.688-1.185 13.968 0 26.815 9.216 30.783 23.344 4.784 17.008-5.12 34.656-22.16 39.473z" />
<glyph unicode="&#xe069;" glyph-name="home2" d="M1016.7 425.307l-480.369 503.168c-6.032 6.304-14.368 9.84-23.088 9.84-8.704 0-17.040-3.552-23.088-9.84l-482.848-503.152c-12.24-12.752-11.809-32.992 0.943-45.248 12.752-12.224 32.992-11.872 45.248 0.944l43.008 44.832v-478.832c0-17.68 14.336-32 32-32h223.552c17.632 0 31.935 14.256 32 31.904l1.008 319.664h254.992v-319.568c0-17.68 14.32-32 32-32h223.472c17.68 0 32 14.32 32 32v478.992l42.992-45.040c6.288-6.528 14.688-9.84 23.089-9.84 7.968 0 15.968 2.944 22.16 8.944 12.736 12.224 13.152 32.48 0.929 45.231zM863.535 483.851v-504.831h-159.472v319.552c0 17.68-14.32 32-32 32h-318.88c-17.632 0-31.935-14.256-32-31.904l-1.008-319.664h-159.664v504.848c0 2.64-0.416 5.168-1.008 7.632l353.76 368.624 351.424-368.208c-0.688-2.592-1.152-5.264-1.152-8.048z" />
<glyph unicode="&#xe075;" glyph-name="calender" d="M960 842.779l-256.224-0.001v63.776c0 17.68-14.32 32-32 32s-32-14.32-32-32v-63.76h-256v63.76c0 17.68-14.32 32-32 32s-32-14.32-32-32v-63.76h-255.776c-35.344 0-64-28.656-64-64v-800c0-35.344 28.656-64 64-64h896c35.344 0 64 28.656 64 64v800c0 35.328-28.656 63.984-64 63.984zM960-21.206l-896 0.001v800h255.776v-32.24c0-17.68 14.32-32 32-32s32 14.32 32 32v32.224h256v-32.24c0-17.68 14.32-32 32-32s32 14.32 32 32v32.24h256.224v-799.984zM736 426.779h64c17.664 0 32 14.336 32 32v64c0 17.664-14.336 32-32 32h-64c-17.664 0-32-14.336-32-32v-64c0-17.664 14.336-32 32-32zM736 170.795h64c17.664 0 32 14.32 32 32v64c0 17.664-14.336 32-32 32h-64c-17.664 0-32-14.336-32-32v-64c0-17.696 14.336-32 32-32zM544 298.795h-64c-17.664 0-32-14.336-32-32v-64c0-17.68 14.336-32 32-32h64c17.664 0 32 14.32 32 32v64c0 17.648-14.336 32-32 32zM544 554.779h-64c-17.664 0-32-14.336-32-32v-64c0-17.664 14.336-32 32-32h64c17.664 0 32 14.336 32 32v64c0 17.68-14.336 32-32 32zM288 554.779h-64c-17.664 0-32-14.336-32-32v-64c0-17.664 14.336-32 32-32h64c17.664 0 32 14.336 32 32v64c0 17.68-14.336 32-32 32zM288 298.795h-64c-17.664 0-32-14.336-32-32v-64c0-17.68 14.336-32 32-32h64c17.664 0 32 14.32 32 32v64c0 17.648-14.336 32-32 32z" />
<glyph unicode="&#xe096;" glyph-name="location-pin" d="M515.664 939.035c-209.904 0-387.664-178.768-387.664-390.544 0-221.76 206.032-448.544 344.624-607.936 0.528-0.64 22.929-25.519 50.528-25.519h2.448c27.6 0 49.84 24.88 50.399 25.519 130.064 149.52 320 396.048 320 607.936 0 211.776-138.656 390.544-380.336 390.544zM528.496-16.517c-1.12-1.12-2.753-2.369-4.193-3.409-1.472 1.008-3.071 2.288-4.255 3.408l-16.736 19.248c-131.392 150.736-311.312 357.152-311.312 545.761 0 177.008 148.224 326.56 323.664 326.56 218.528 0 316.336-164 316.336-326.56 0-143.184-102.128-333.296-303.504-565.008zM513.119 745.259c-106.032 0-192-85.968-192-192s85.968-192 192-192 192 85.968 192 192-85.968 192-192 192zM513.119 425.259c-70.576 0-129.473 58.816-129.473 129.408 0 70.576 57.424 128 128 128 70.624 0 128-57.424 128-128 0.032-70.592-55.903-129.408-126.527-129.408z" />
<glyph unicode="&#xe609;" glyph-name="social-instagram" d="M511 934.667c138 0 155-1 209-3 53-2 90-11 123-24 34-13 62-30 90-58s45-56 58-90c13-33 22-70 24-123 2-54 3-71 3-209s-1-155-3-209c-2-53-11-90-24-123-13-34-30-62-58-90s-56-45-90-58c-33-13-70-22-123-24-54-2-71-3-209-3s-155 1-209 3c-53 2-90 11-123 24-34 13-62 30-90 58s-45 56-58 90c-13 33-22 70-24 123-2 54-3 71-3 209s1 155 3 209c2 53 11 90 24 123 13 34 30 62 58 90s56 45 90 58c33 13 70 22 123 24 54 2 71 3 209 3zM511 868.667c-144 0-161-1-217-3-52-2-81-12-100-19-49-20-82-53-102-102-7-19-17-48-19-100-2-56-3-73-3-217s1-161 3-217c2-52 12-81 19-100 20-49 53-82 102-102 19-7 48-17 100-19 56-2 73-3 217-3s161 1 217 3c52 2 81 12 100 19 49 20 82 53 102 102 7 19 17 48 19 100 2 56 3 73 3 217s-1 161-3 217c-2 52-12 81-19 100-20 49-53 82-102 102-19 7-48 17-100 19-56 2-73 3-217 3zM511 224.667c112 0 203 91 203 203s-91 203-203 203-203-91-203-203 91-203 203-203zM511 687.667c144 0 260-116 260-260s-116-260-260-260-260 116-260 260 116 260 260 260zM843 697.667c0-34-28-60-62-60s-60 26-60 60 26 62 60 62 62-28 62-62z" />
<glyph unicode="&#xe60a;" glyph-name="social-linkedin" d="M997.795-63.764h-208.026c-14.715 0-26.607 11.893-26.607 26.607v335.017c0 114.898-59.263 114.898-78.815 114.898-52.611 0-74.986-41.524-82.243-59.466-3.427-8.063-5.039-21.771-5.039-40.921v-349.732c0-14.715-11.893-26.607-26.607-26.607h-208.227c-7.055 0-13.908 2.822-18.947 7.861s-7.861 11.894-7.66 18.948c0 5.644 2.822 567.433 0 624.882-0.403 7.257 2.217 14.312 7.257 19.553s11.893 8.266 19.351 8.266h208.227c14.715 0 26.607-11.893 26.607-26.607v-15.723c35.074 31.244 85.669 57.046 161.058 57.046 166.702 0 266.28-115.301 266.28-308.409v-359.005c0-14.715-11.893-26.607-26.607-26.607h0.001zM816.377-10.549l155.012 0.004v332.397c0 162.268-77.606 255.193-213.065 255.193-90.507 0-134.45-45.153-162.066-86.477-3.225-10.885-13.506-18.948-25.6-18.948h-1.411c-9.676 0-18.545 5.241-23.181 13.707-3.628 6.652-4.435 14.313-2.016 21.367v55.836h-154.608c1.411-111.068 0-470.477-0.403-572.877h154.809v322.923c0 26.809 2.822 46.16 8.869 60.875 23.383 57.852 72.566 92.724 131.427 92.724 83.856 0 132.031-61.279 132.031-168.113v-308.611h0.203zM247.131-63.76h-208.227c-14.715 0-26.607 11.893-26.607 26.607v626.091c0 14.715 11.893 26.607 26.607 26.607h208.227c14.715 0 26.607-11.893 26.607-26.607v-626.091c0-14.715-11.893-26.607-26.607-26.607zM65.513-10.545h155.011v572.876h-155.011v-572.876zM143.118 647.799l-1.412 0.001c-82.041 0-141.707 56.844-141.707 135.055 0 78.009 60.674 134.854 144.529 134.854 82.444 0 141.305-55.231 142.918-134.249 0-78.816-60.674-135.66-144.328-135.66zM144.528 864.291c-54.627 0-91.313-32.857-91.313-81.639 0-47.975 36.283-81.638 88.491-81.638h1.411c54.425 0 91.111 32.857 91.111 81.639-1.008 49.386-36.283 81.638-89.701 81.638z" />
<glyph unicode="&#xe60d;" glyph-name="social-google" d="M707 578.667c-70 75-128 87-184 88h-2c-126 0-245-104-245-248 0-151 136-239 244-239h1c60 0 133 11 197 103h-246v255l523-2c5-26 14-91 14-125 0-289-194-495-493-495-284 0-515 226-515 508s231 507 515 507c139 0 288-55 382-180zM520 485.667v-154h263c-12-65-81-195-263-195-159 0-287 130-287 285 0 156 131 287 287 287 91 0 152-40 185-72l126 119c-80 75-185 120-311 120-256 0-464-201-464-454 0-251 208-453 464-453 270 0 445 185 445 442 0 29-2 52-6 75h-439z" />
<glyph unicode="&#xe928;" glyph-name="crescent-moon-phase-outlined-shape" d="M520.192 426.667c0 220.832 143.328 408.448 343.808 480.288-56.223 20.159-116.705 31.712-180.096 31.712-289.345 0-523.904-229.248-523.904-512 0-282.784 234.559-512 523.904-512 63.391 0 123.873 11.552 180.096 31.712-200.48 71.84-343.808 259.456-343.808 480.288zM615.359-21.333c-158.176 11.52-389.856 200.576-389.856 448s226.72 434.144 389.888 448c49.056 4.161 23.137 4 68.545 0-106.784-67.296-229.024-254.785-229.024-448s88.895-371.808 229.023-448c-43.167-4-21.6-3.424-68.576 0z" />
<glyph unicode="&#xe957;" glyph-name="label-outline" d="M962.679 938.239h-429.076c-33.843 0-40.049-14.811-72.324-48.557l-422.391-421.111c-51.85-51.659-51.85-135.464 0-187.157l328.54-327.55c51.851-51.692 135.882-51.692 187.732 0l422.425 421.111c27.189 27.125 46.414 40.593 46.414 74.37v427.766c-0.032 33.778-27.477 61.127-61.32 61.127zM508.204 0.661c-25.909-25.845-67.94-25.845-93.881 0l-328.51 327.548c-25.909 25.845-25.909 67.75 0 93.595l47.439 47.277 421.397-422.104-46.445-46.316zM962.679 479.894c0-16.889-15.514-41.648-32.051-58.121l-328.54-327.55-421.909 421.655 328.027 327.006c15.067 15.033 39.088 34.226 56.011 34.226h367.788c16.921 0 30.644-13.691 30.644-30.549v-366.668h0.032zM625.567 725.908c-51.851-51.692-51.851-135.466 0-187.157 51.85-51.692 135.881-51.692 187.732 0s51.851 135.466 0 187.157-135.913 51.691-187.732 0zM766.343 585.548c-25.911-25.845-67.94-25.845-93.883 0-25.909 25.845-25.909 67.75 0 93.595s67.94 25.845 93.883 0c25.939-25.847 25.939-67.75 0-93.595z" />
<glyph unicode="&#xe9b0;" glyph-name="sun-day-weather-symbol" d="M128 458.667h-96c-17.664 0-32-14.336-32-32s14.336-32 32-32h96c17.664 0 32 14.336 32 32s-14.336 32-32 32zM512 778.667c17.664 0 32 14.336 32 32v96c0 17.664-14.336 32-32 32s-32-14.336-32-32v-96c0-17.664 14.336-32 32-32zM819.873 689.708l67.233 67.233c12.383 12.383 12.383 32.448 0 44.832s-32.45 12.383-44.833 0l-67.233-67.233c-12.383-12.383-12.383-32.448 0-44.832 12.385-12.385 32.45-12.385 44.833 0zM237.12 196.587l-67.233-67.233c-12.383-12.383-12.383-32.448 0-44.832s32.448-12.383 44.832 0l67.233 67.233c12.383 12.383 12.383 32.448 0 44.832s-32.447 12.385-44.832 0zM217.856 675.563c12.512-12.512 32.768-12.512 45.247 0 12.48 12.512 12.48 32.768 0 45.247l-67.87 67.905c-12.512 12.512-32.768 12.512-45.248 0-12.512-12.512-12.512-32.768 0-45.248l67.872-67.904zM512 74.667c-17.664 0-32-14.336-32-32v-96c0-17.664 14.336-32 32-32s32 14.336 32 32v96c0 17.664-14.336 32-32 32zM806.144 177.771c-12.512 12.512-32.768 12.512-45.248 0-12.512-12.514-12.512-32.768 0-45.248l67.872-67.872c12.512-12.512 32.768-12.512 45.248 0 12.48 12.514 12.512 32.768 0 45.248l-67.872 67.872zM992 458.667h-96c-17.664 0-32-14.336-32-32s14.336-32 32-32h96c17.664 0 32 14.336 32 32s-14.336 32-32 32zM512 714.859c-159.168 0-288.192-129.024-288.192-288.192s129.024-288.192 288.192-288.192 288.192 129.024 288.192 288.192-129.024 288.192-288.192 288.192zM512 202.731c-123.68 0-223.936 100.257-223.936 223.936s100.257 223.936 223.936 223.936 223.936-100.257 223.936-223.936-100.257-223.936-223.936-223.936z" />
<glyph unicode="&#xe9b7;" glyph-name="text-paper-sheet-symbol" d="M736 362.667h-448c-17.664 0-32-14.337-32-32 0-17.665 14.336-32 32-32h448c17.664 0 32 14.335 32 32 0 17.662-14.336 32-32 32zM736 555.403h-448c-17.664 0-32-14.336-32-32s14.336-32 32-32h448c17.664 0 32 14.336 32 32s-14.336 32-32 32zM736 746.667h-448c-17.664 0-32-14.336-32-32s14.336-32 32-32h448c17.664 0 32 14.336 32 32s-14.336 32-32 32zM832 938.667h-639.999c-70.689 0-128.001-57.312-128.001-128.001v-895.999h59.744l132.257 95.998 127.999-95.998 128.001 95.998 128.001-95.998 128.001 95.998 132.255-95.998h59.745v895.999c-0.001 70.689-57.315 128.001-128.002 128.001zM896.001-22.199l-128.001 96.865-128.001-102.018-128.001 102.018-128.001-102.018-127.999 102.018-128.001-97.857v833.858c0 35.36 28.672 64 64 64h640.001c35.36 0 64.001-28.64 64.001-64v-832.865z" />
<glyph unicode="&#xe9f9;" glyph-name="book" d="M853.333 896h-576c-81.067 0-149.333-68.267-149.333-149.333v-640c0-81.067 68.267-149.333 149.333-149.333h576c25.6 0 42.667 17.067 42.667 42.667v853.333c0 25.6-17.067 42.667-42.667 42.667zM277.333 810.667h533.333v-554.667h-533.333c-21.333 0-42.667-4.267-64-17.067v507.733c0 34.133 29.867 64 64 64zM277.333 42.667c-34.133 0-64 29.867-64 64s29.867 64 64 64h533.333v-128h-533.333z" />
<glyph unicode="&#xea65;" glyph-name="more-horizontal" d="M512 554.667c-72.533 0-128-55.467-128-128s55.467-128 128-128 128 55.467 128 128-55.467 128-128 128zM512 384c-25.6 0-42.667 17.067-42.667 42.667s17.067 42.667 42.667 42.667 42.667-17.067 42.667-42.667-17.067-42.667-42.667-42.667zM853.333 554.667c-72.533 0-128-55.467-128-128s55.467-128 128-128 128 55.467 128 128-55.467 128-128 128zM853.333 384c-25.6 0-42.667 17.067-42.667 42.667s17.067 42.667 42.667 42.667 42.667-17.067 42.667-42.667-17.067-42.667-42.667-42.667zM170.667 554.667c-72.533 0-128-55.467-128-128s55.467-128 128-128 128 55.467 128 128-55.467 128-128 128zM170.667 384c-25.6 0-42.667 17.067-42.667 42.667s17.067 42.667 42.667 42.667 42.667-17.067 42.667-42.667-17.067-42.667-42.667-42.667z" />
<glyph unicode="&#xec00;" glyph-name="cutlery" d="M684 938.667c-15.2 0-14.336 0-32 0s-32-14.336-32-32v-960c0-17.664 14.336-32 32-32s32 14.336 32 32v416h192c0 376.96-192 576-192 576zM684 842.667c0 0 121.791-214.176 128-416h-128v416zM436 938.667c-17.664 0-32-14.336-32-32v-224c0-45.024-26.784-75.392-64-89.665v313.665c0 17.664-14.336 32-32 32s-32-14.336-32-32v-313.665c-37.216 14.273-64 44.64-64 89.665v224c0 17.664-14.336 32-32 32s-32-14.336-32-32v-224c0-77.408 54.977-141.952 128-156.8v-579.2c0-17.664 14.336-32 32-32s32 14.336 32 32v579.2c73.023 14.816 128 79.392 128 156.8v224c0 17.664-14.336 32-32 32z" />
<glyph unicode="" glyph-name="cutlery" d="M684 938.667c-15.2 0-14.336 0-32 0s-32-14.336-32-32v-960c0-17.664 14.336-32 32-32s32 14.336 32 32v416h192c0 376.96-192 576-192 576zM684 842.667c0 0 121.791-214.176 128-416h-128v416zM436 938.667c-17.664 0-32-14.336-32-32v-224c0-45.024-26.784-75.392-64-89.665v313.665c0 17.664-14.336 32-32 32s-32-14.336-32-32v-313.665c-37.216 14.273-64 44.64-64 89.665v224c0 17.664-14.336 32-32 32s-32-14.336-32-32v-224c0-77.408 54.977-141.952 128-156.8v-579.2c0-17.664 14.336-32 32-32s32 14.336 32 32v579.2c73.023 14.816 128 79.392 128 156.8v224c0 17.664-14.336 32-32 32z" />
<glyph unicode="user" glyph-name="user2" d="M511.728 874.667c108.672 0 223.92-91.534 223.92-159.854v-159.92c0-61.552-25.6-179.312-94.256-233.376-17.504-13.776-26.592-35.681-23.968-57.809 2.624-22.16 16.592-41.313 36.848-50.625l278.496-132.064c2.176-0.992 26.688-5.104 26.688-39.345l0.032-62.464-895.488-0.048v64.944c0 25.44 19.088 33.425 26.72 36.944l281.024 132.624c20.16 9.248 34.065 28.32 36.769 50.32 2.72 22-6.16 43.84-23.456 57.712-66.481 53.376-97.456 170.704-97.456 233.185v159.92c0.016 66.848 116.416 159.855 224.128 159.854zM511.728 938.669c-141.312 0-288.127-117.938-288.127-223.857v-159.92c0-69.872 31.888-211.248 121.392-283.088l-281.040-132.64s-63.952-28.496-63.952-63.968v-96.032c0-35.344 28.64-63.968 63.951-63.968h895.552c35.344 0 63.968 28.624 63.968 63.968v96.032c0 37.6-63.968 63.968-63.968 63.968l-278.496 132.064c88.656 69.776 118.656 206.849 118.656 283.665v159.92c0 105.92-146.64 223.855-287.936 223.855v0z" />
<glyph unicode="text-paper-sheet-symbol" glyph-name="text-paper-sheet-symbol" d="M736 362.667h-448c-17.664 0-32-14.337-32-32 0-17.665 14.336-32 32-32h448c17.664 0 32 14.335 32 32 0 17.662-14.336 32-32 32zM736 555.403h-448c-17.664 0-32-14.336-32-32s14.336-32 32-32h448c17.664 0 32 14.336 32 32s-14.336 32-32 32zM736 746.667h-448c-17.664 0-32-14.336-32-32s14.336-32 32-32h448c17.664 0 32 14.336 32 32s-14.336 32-32 32zM832 938.667h-639.999c-70.689 0-128.001-57.312-128.001-128.001v-895.999h59.744l132.257 95.998 127.999-95.998 128.001 95.998 128.001-95.998 128.001 95.998 132.255-95.998h59.745v895.999c-0.001 70.689-57.315 128.001-128.002 128.001zM896.001-22.199l-128.001 96.865-128.001-102.018-128.001 102.018-128.001-102.018-127.999 102.018-128.001-97.857v833.858c0 35.36 28.672 64 64 64h640.001c35.36 0 64.001-28.64 64.001-64v-832.865z" />
<glyph unicode="sun-day-weather-symbol" glyph-name="sun-day-weather-symbol" d="M128 458.667h-96c-17.664 0-32-14.336-32-32s14.336-32 32-32h96c17.664 0 32 14.336 32 32s-14.336 32-32 32zM512 778.667c17.664 0 32 14.336 32 32v96c0 17.664-14.336 32-32 32s-32-14.336-32-32v-96c0-17.664 14.336-32 32-32zM819.873 689.708l67.233 67.233c12.383 12.383 12.383 32.448 0 44.832s-32.45 12.383-44.833 0l-67.233-67.233c-12.383-12.383-12.383-32.448 0-44.832 12.385-12.385 32.45-12.385 44.833 0zM237.12 196.587l-67.233-67.233c-12.383-12.383-12.383-32.448 0-44.832s32.448-12.383 44.832 0l67.233 67.233c12.383 12.383 12.383 32.448 0 44.832s-32.447 12.385-44.832 0zM217.856 675.563c12.512-12.512 32.768-12.512 45.247 0 12.48 12.512 12.48 32.768 0 45.247l-67.87 67.905c-12.512 12.512-32.768 12.512-45.248 0-12.512-12.512-12.512-32.768 0-45.248l67.872-67.904zM512 74.667c-17.664 0-32-14.336-32-32v-96c0-17.664 14.336-32 32-32s32 14.336 32 32v96c0 17.664-14.336 32-32 32zM806.144 177.771c-12.512 12.512-32.768 12.512-45.248 0-12.512-12.514-12.512-32.768 0-45.248l67.872-67.872c12.512-12.512 32.768-12.512 45.248 0 12.48 12.514 12.512 32.768 0 45.248l-67.872 67.872zM992 458.667h-96c-17.664 0-32-14.336-32-32s14.336-32 32-32h96c17.664 0 32 14.336 32 32s-14.336 32-32 32zM512 714.859c-159.168 0-288.192-129.024-288.192-288.192s129.024-288.192 288.192-288.192 288.192 129.024 288.192 288.192-129.024 288.192-288.192 288.192zM512 202.731c-123.68 0-223.936 100.257-223.936 223.936s100.257 223.936 223.936 223.936 223.936-100.257 223.936-223.936-100.257-223.936-223.936-223.936z" />
<glyph unicode="social-twitter" glyph-name="social-twitter" d="M684.4 779.979c52.88 0 100.621-21.636 134.253-56.372 41.84 8.096 81.28 22.848 116.721 43.279-13.712-41.632-42.88-76.56-80.815-98.655 37.12 4.368 72.656 13.904 105.632 28.16-24.72-35.744-55.84-67.216-91.775-92.368 0.336-7.632 0.528-15.344 0.528-23.023 0-235.728-185.008-507.615-523.312-507.615-103.84 0-200.56 29.632-281.903 80.224 14.368-1.68 29.008-2.527 43.84-2.527 86.16 0 165.504 28.496 228.464 76.4-80.528 1.376-148.496 53.008-171.808 123.84 11.216-2.096 22.752-3.216 34.624-3.216 16.72 0 33.008 2.16 48.399 6.256-84.128 16.336-147.536 88.448-147.536 174.929v2.288c24.816-13.376 53.152-21.408 83.345-22.336-49.376 32.032-81.84 86.561-81.84 148.465 0 32.72 9.088 63.376 24.912 89.632 90.689-107.872 226.208-178.912 379.088-186.384-3.152 13.024-4.784 26.784-4.784 40.624 0 98.544 82.352 178.4 183.967 178.4zM960.189 696.358v0zM684.397 843.975c-125.664 0-229.773-91.809-245.806-210.433-102.816 20.656-196.32 75.088-263.504 154.944-12.192 14.512-30.16 22.815-48.977 22.815-1.664 0-3.344-0.064-5.023-0.192-20.592-1.648-39.12-13.12-49.776-30.784-22.32-37.024-34.097-79.44-34.097-122.656 0-28.848 5.184-56.943 15.008-83.216-10.464-11.632-16.496-26.848-16.496-42.912v-2.288c0-62.688 24.784-120.864 65.936-164.464-2.368-10.976-1.84-22.464 1.776-33.472 14.192-43.184 40.032-80.399 73.536-108.751-22.496-5.008-45.712-7.536-69.408-7.536-12.528 0-24.721 0.688-36.257 2.097-2.56 0.32-5.088 0.433-7.632 0.433-26.88 0-51.28-16.944-60.336-42.784-9.936-28.32 1.089-59.712 26.561-75.568 94.528-58.816 203.712-89.872 315.712-89.872 364.032 0 583.008 284.976 587.264 563.344 29.792 24.656 56.128 53.185 78.448 85.152 8.128 10.688 12.96 24.032 12.96 38.496 0 21.776-10.895 41.024-27.487 52.593 7.184 24.624-1.009 51.28-21.009 67.568-11.68 9.504-26 14.336-40.4 14.336-11.008 0-22.032-2.816-31.968-8.561-21.152-12.192-43.776-21.841-67.601-28.785-43.105 32.432-96.545 50.496-151.425 50.497z" />
<glyph unicode="social-tumblr" glyph-name="social-tumblr" d="M528.016 874.923l-0.002-223.871h224.32v-95.968h-223.328l-0.32-278.528c0-51.776 2.688-85.009 8.16-99.745 8.528-23.248 39.568-53.008 97.185-53.008 44.688 0 104.977 13.44 150.16 47.248v-149.312c-37.68-17.968-72.72-25.216-103.248-32.464-30.56-7.216-63.663-10.848-99.151-10.848-39.536 0-153.664 1.088-200.496 120.399-8.432 21.472-12.655 52.655-12.655 93.472v362.624h-128.848l0.624 98.128c42.656 0 170.624 25.904 170.624 221.872zM528.014 938.924l-116.976 0.002c-35.344 0-64-28.656-64-64 0-146.496-81.632-157.872-106.624-157.872-35.216 0-63.84-28.464-64-63.68l-0.624-98.128c-0.096-17.024 6.624-33.376 18.624-45.472 12.032-12.064 28.336-18.849 45.376-18.849h64.848v-298.624c0-49.376 5.6-87.632 17.088-116.88 28.848-73.44 97.376-161.009 260.064-161.009 40.288 0 78.592 4.224 113.872 12.56l7.056 1.664c29.872 7.024 68.032 15.776 109.008 35.313 22.288 10.624 36.464 33.088 36.464 57.776v149.312c0 24.224-13.68 46.367-35.344 57.215-9.056 4.56-18.88 6.783-28.656 6.783-13.568 0-27.057-4.32-38.337-12.752-38.096-28.528-86.848-34.496-111.808-34.496-25.6 0-35.119 9.28-37.215 11.744-1.088 5.024-4.128 23.776-4.128 77.009l0.224 214.528h159.408c35.344 0 64 28.656 64 64v95.968c0 35.344-28.656 64-64 64h-160.32v159.888c0 35.344-28.656 64-64 64v0z" />
<glyph unicode="social-linkedin" glyph-name="social-linkedin" d="M997.795-63.764h-208.026c-14.715 0-26.607 11.893-26.607 26.607v335.017c0 114.898-59.263 114.898-78.815 114.898-52.611 0-74.986-41.524-82.243-59.466-3.427-8.063-5.039-21.771-5.039-40.921v-349.732c0-14.715-11.893-26.607-26.607-26.607h-208.227c-7.055 0-13.908 2.822-18.947 7.861s-7.861 11.894-7.66 18.948c0 5.644 2.822 567.433 0 624.882-0.403 7.257 2.217 14.312 7.257 19.553s11.893 8.266 19.351 8.266h208.227c14.715 0 26.607-11.893 26.607-26.607v-15.723c35.074 31.244 85.669 57.046 161.058 57.046 166.702 0 266.28-115.301 266.28-308.409v-359.005c0-14.715-11.893-26.607-26.607-26.607h0.001zM816.377-10.549l155.012 0.004v332.397c0 162.268-77.606 255.193-213.065 255.193-90.507 0-134.45-45.153-162.066-86.477-3.225-10.885-13.506-18.948-25.6-18.948h-1.411c-9.676 0-18.545 5.241-23.181 13.707-3.628 6.652-4.435 14.313-2.016 21.367v55.836h-154.608c1.411-111.068 0-470.477-0.403-572.877h154.809v322.923c0 26.809 2.822 46.16 8.869 60.875 23.383 57.852 72.566 92.724 131.427 92.724 83.856 0 132.031-61.279 132.031-168.113v-308.611h0.203zM247.131-63.76h-208.227c-14.715 0-26.607 11.893-26.607 26.607v626.091c0 14.715 11.893 26.607 26.607 26.607h208.227c14.715 0 26.607-11.893 26.607-26.607v-626.091c0-14.715-11.893-26.607-26.607-26.607zM65.513-10.545h155.011v572.876h-155.011v-572.876zM143.118 647.799l-1.412 0.001c-82.041 0-141.707 56.844-141.707 135.055 0 78.009 60.674 134.854 144.529 134.854 82.444 0 141.305-55.231 142.918-134.249 0-78.816-60.674-135.66-144.328-135.66zM144.528 864.291c-54.627 0-91.313-32.857-91.313-81.639 0-47.975 36.283-81.638 88.491-81.638h1.411c54.425 0 91.111 32.857 91.111 81.639-1.008 49.386-36.283 81.638-89.701 81.638z" />
<glyph unicode="social-instagram" glyph-name="social-instagram" d="M511 934.667c138 0 155-1 209-3 53-2 90-11 123-24 34-13 62-30 90-58s45-56 58-90c13-33 22-70 24-123 2-54 3-71 3-209s-1-155-3-209c-2-53-11-90-24-123-13-34-30-62-58-90s-56-45-90-58c-33-13-70-22-123-24-54-2-71-3-209-3s-155 1-209 3c-53 2-90 11-123 24-34 13-62 30-90 58s-45 56-58 90c-13 33-22 70-24 123-2 54-3 71-3 209s1 155 3 209c2 53 11 90 24 123 13 34 30 62 58 90s56 45 90 58c33 13 70 22 123 24 54 2 71 3 209 3zM511 868.667c-144 0-161-1-217-3-52-2-81-12-100-19-49-20-82-53-102-102-7-19-17-48-19-100-2-56-3-73-3-217s1-161 3-217c2-52 12-81 19-100 20-49 53-82 102-102 19-7 48-17 100-19 56-2 73-3 217-3s161 1 217 3c52 2 81 12 100 19 49 20 82 53 102 102 7 19 17 48 19 100 2 56 3 73 3 217s-1 161-3 217c-2 52-12 81-19 100-20 49-53 82-102 102-19 7-48 17-100 19-56 2-73 3-217 3zM511 224.667c112 0 203 91 203 203s-91 203-203 203-203-91-203-203 91-203 203-203zM511 687.667c144 0 260-116 260-260s-116-260-260-260-260 116-260 260 116 260 260 260zM843 697.667c0-34-28-60-62-60s-60 26-60 60 26 62 60 62 62-28 62-62z" />
<glyph unicode="social-google" glyph-name="social-google" d="M707 578.667c-70 75-128 87-184 88h-2c-126 0-245-104-245-248 0-151 136-239 244-239h1c60 0 133 11 197 103h-246v255l523-2c5-26 14-91 14-125 0-289-194-495-493-495-284 0-515 226-515 508s231 507 515 507c139 0 288-55 382-180zM520 485.667v-154h263c-12-65-81-195-263-195-159 0-287 130-287 285 0 156 131 287 287 287 91 0 152-40 185-72l126 119c-80 75-185 120-311 120-256 0-464-201-464-454 0-251 208-453 464-453 270 0 445 185 445 442 0 29-2 52-6 75h-439z" />
<glyph unicode="social-facebook" glyph-name="social-facebook" d="M581.76 858.171c3.808 0 5.999-0.159 5.999-0.159h83.568l-0.432-96h-83.008c-45.68 0-44.624-39.008-44.624-39.008v-152.192h161.632l-22.56-95.872h-139.6v-479.776h-95.904l-0.064 479.776h-127.408l-0.256 95.872h127.712v149.184c0.016 130.080 108.048 138.176 134.944 138.176zM671.327 858.012v0zM581.76 922.172c-23.008 0-67.97-3.809-110.562-29.473-40.32-24.256-88.368-73.936-88.368-172.688v-85.184h-63.712c-17.008 0-33.312-6.784-45.344-18.816-12-12.064-18.72-28.368-18.655-45.408l0.256-95.872c0.128-35.248 28.752-63.776 64-63.776h63.408l0.064-415.776c0-35.344 28.656-64 64-64h95.904c35.344 0 64 28.656 64 64v415.776h75.6c28.4 0 53.408 18.72 61.408 45.968l22.56 95.872c5.68 19.344 1.903 40.256-10.192 56.368-12.064 16.16-31.057 25.664-51.217 25.664h-97.632v63.152l63.632 0.032c35.216 0 63.84 28.464 64 63.712l0.432 92.752c0.064 1.184 0.097 2.336 0.097 3.536 0 35.344-28.592 64-63.936 64h-81.936c-1.84 0.096-4.496 0.16-7.807 0.161z" />
<glyph unicode="screen-tablet" glyph-name="screen-tablet" d="M832.144 938.667h-640.288c-53.024 0-96-42.976-96-96v-832c0-53.024 42.976-96 96-96h640.288c53.024 0 96 42.976 96 96v832c0 53.024-42.976 96-96 96zM864.144 10.667c0-17.664-14.336-32-32-32h-640.288c-17.664 0-32 14.336-32 32v832c0 17.664 14.336 32 32 32h640.288c17.664 0 32-14.336 32-32v-832zM512.048 138.491c-35.28 0-63.84-28.592-63.84-63.824s28.56-63.841 63.84-63.841c35.264 0 63.84 28.608 63.84 63.841s-28.576 63.824-63.84 63.824zM576.048 842.667h-128c-17.664 0-32-14.336-32-32s14.336-32 32-32h128c17.664 0 32 14.336 32 32s-14.336 32-32 32z" />
<glyph unicode="people" glyph-name="people" d="M746 103.387l-201.471 111.602c74.88 58.912 95.216 174.688 95.216 239.601v135.12c0 89.472-118.88 189.12-238.288 189.12-119.376 0-241.408-99.664-241.408-189.12v-135.12c0-59.024 24.976-178.433 100.624-239.089l-206.672-112.112s-54-24.064-54-54.064v-81.088c0-29.84 24.224-54.063 54-54.063h692c29.808 0 54.031 24.224 54.031 54.063v81.088c0 31.808-54.032 54.063-54.032 54.063zM736.033-21.828h-672.031v57.216c4.592 3.344 11.008 7.216 16.064 9.536 1.504 0.688 3.008 1.408 4.432 2.225l206.688 112.096c18.848 10.224 31.344 29.184 33.248 50.527s-7.008 42.256-23.712 55.664c-53.664 43.024-76.656 138.32-76.656 189.152v135.12c0 45.968 86.656 125.12 177.408 125.12 92.432 0 174.288-78.064 174.288-125.12v-135.12c0-50.128-15.568-145.84-70.784-189.28-16.912-13.312-26-34.224-24.224-55.664 1.808-21.44 14.256-40.528 33.12-50.849l201.472-111.6c1.776-0.976 4.032-2.031 5.904-2.848 4.72-2 10.527-5.344 14.783-8.288v-57.888zM969.97 262.731l-204.465 111.601c74.88 58.912 98.224 174.688 98.224 239.601v135.12c0 89.472-121.872 190.128-241.28 190.128-77.6 0-156.943-42.192-203.119-96.225 26.336-1.632 55.376-1.664 80.464-9.664 33.712 26.256 76.368 41.872 122.656 41.872 92.432 0 177.279-79.056 177.279-126.128v-135.12c0-50.128-18.56-145.84-73.775-189.28-16.912-13.312-26-34.224-24.224-55.664 1.808-21.44 14.256-40.528 33.12-50.849l204.464-111.6c1.776-0.976 4.032-2.031 5.904-2.848 4.72-2 10.527-5.344 14.783-8.288v-56.912h-129.184c19.504-14.72 25.408-35.775 32.977-63.999h106.192c29.808 0 54.031 24.224 54.031 54.063v80.096c-0.016 31.84-54.048 54.096-54.048 54.096z" />
<glyph unicode="notebook" glyph-name="notebook" d="M849.152 938.667h-637.999c-46 0-66.032-34-66.032-66v-127.312h-34.928c-17.311 0-31.344-14.032-31.344-31.345s14.032-31.344 31.344-31.344h34.928v-128.752h-31.936c-17.313 0-31.345-14.032-31.345-31.344s14.032-31.345 31.344-31.345h31.936v-129.44h-32.624c-17.311 0-31.344-14.032-31.344-31.344s14.032-31.344 31.344-31.344h32.624v-128.464h-32.624c-17.311 0-31.344-14.032-31.344-31.344s14.032-31.344 31.344-31.344h32.624v-129.28c0-53.024 41.536-64 64.528-64h639.504c53.024 0 96 42.976 96 96v832c0 53.024-42.96 96-96 96zM209.121-21.333l-0.001 129.279h33.344c17.312 0 31.344 14.032 31.344 31.344s-14.032 31.345-31.344 31.345h-33.344v128.464h33.344c17.312 0 31.344 14.032 31.344 31.344s-14.032 31.344-31.344 31.344h-33.344v129.44h34.032c17.313 0 31.345 14.032 31.345 31.345s-14.032 31.344-31.344 31.344h-34.032v128.752h31.024c17.312 0 31.344 14.032 31.344 31.344s-14.032 31.345-31.344 31.345h-31.024v127.312c0 0.752 0.064 1.376 0.16 1.936 0.496 0.032 1.12 0.064 1.872 0.064h510v-896h-512.032zM881.152 10.666c0-17.664-14.336-32-32-32h-64v896h64c17.664 0 32-14.336 32-32v-832z" />
<glyph unicode="more-horizontal" glyph-name="more-horizontal" d="M512 554.667c-72.533 0-128-55.467-128-128s55.467-128 128-128 128 55.467 128 128-55.467 128-128 128zM512 384c-25.6 0-42.667 17.067-42.667 42.667s17.067 42.667 42.667 42.667 42.667-17.067 42.667-42.667-17.067-42.667-42.667-42.667zM853.333 554.667c-72.533 0-128-55.467-128-128s55.467-128 128-128 128 55.467 128 128-55.467 128-128 128zM853.333 384c-25.6 0-42.667 17.067-42.667 42.667s17.067 42.667 42.667 42.667 42.667-17.067 42.667-42.667-17.067-42.667-42.667-42.667zM170.667 554.667c-72.533 0-128-55.467-128-128s55.467-128 128-128 128 55.467 128 128-55.467 128-128 128zM170.667 384c-25.6 0-42.667 17.067-42.667 42.667s17.067 42.667 42.667 42.667 42.667-17.067 42.667-42.667-17.067-42.667-42.667-42.667z" />
<glyph unicode="map2" glyph-name="map2" d="M993.184 803.659l-320.961 133.069-319.44-126.432-321.968 126.368c-2.752 0.816-5.439 1.12-7.968 1.12-13.136 0.064-22.848-9.743-22.848-24.495v-830c0-17.568 13.872-35.872 30.816-40.56l322.336-127.184 319.008 129.504 321.024-126.128c2.752-0.752 5.44-1.12 7.969-1.12 13.12 0 22.848 9.744 22.848 24.496v820.736c0 17.568-13.872 35.889-30.816 40.625zM383.999 757.528l256 100.304v-761.504l-256-101.184v762.384zM63.999 851.976l256-94.577v-761.76l-256 104.272v752.064zM959.999 0.662l-256 96.384v759.824l256-110.384v-745.824z" />
<glyph unicode="location-pin" glyph-name="location-pin" d="M515.664 939.035c-209.904 0-387.664-178.768-387.664-390.544 0-221.76 206.032-448.544 344.624-607.936 0.528-0.64 22.929-25.519 50.528-25.519h2.448c27.6 0 49.84 24.88 50.399 25.519 130.064 149.52 320 396.048 320 607.936 0 211.776-138.656 390.544-380.336 390.544zM528.496-16.517c-1.12-1.12-2.753-2.369-4.193-3.409-1.472 1.008-3.071 2.288-4.255 3.408l-16.736 19.248c-131.392 150.736-311.312 357.152-311.312 545.761 0 177.008 148.224 326.56 323.664 326.56 218.528 0 316.336-164 316.336-326.56 0-143.184-102.128-333.296-303.504-565.008zM513.119 745.259c-106.032 0-192-85.968-192-192s85.968-192 192-192 192 85.968 192 192-85.968 192-192 192zM513.119 425.259c-70.576 0-129.473 58.816-129.473 129.408 0 70.576 57.424 128 128 128 70.624 0 128-57.424 128-128 0.032-70.592-55.903-129.408-126.527-129.408z" />
<glyph unicode="label-outline" glyph-name="label-outline" d="M962.679 938.239h-429.076c-33.843 0-40.049-14.811-72.324-48.557l-422.391-421.111c-51.85-51.659-51.85-135.464 0-187.157l328.54-327.55c51.851-51.692 135.882-51.692 187.732 0l422.425 421.111c27.189 27.125 46.414 40.593 46.414 74.37v427.766c-0.032 33.778-27.477 61.127-61.32 61.127zM508.204 0.661c-25.909-25.845-67.94-25.845-93.881 0l-328.51 327.548c-25.909 25.845-25.909 67.75 0 93.595l47.439 47.277 421.397-422.104-46.445-46.316zM962.679 479.894c0-16.889-15.514-41.648-32.051-58.121l-328.54-327.55-421.909 421.655 328.027 327.006c15.067 15.033 39.088 34.226 56.011 34.226h367.788c16.921 0 30.644-13.691 30.644-30.549v-366.668h0.032zM625.567 725.908c-51.851-51.692-51.851-135.466 0-187.157 51.85-51.692 135.881-51.692 187.732 0s51.851 135.466 0 187.157-135.913 51.691-187.732 0zM766.343 585.548c-25.911-25.845-67.94-25.845-93.883 0-25.909 25.845-25.909 67.75 0 93.595s67.94 25.845 93.883 0c25.939-25.847 25.939-67.75 0-93.595z" />
<glyph unicode="home2" glyph-name="home2" d="M1016.7 425.307l-480.369 503.168c-6.032 6.304-14.368 9.84-23.088 9.84-8.704 0-17.040-3.552-23.088-9.84l-482.848-503.152c-12.24-12.752-11.809-32.992 0.943-45.248 12.752-12.224 32.992-11.872 45.248 0.944l43.008 44.832v-478.832c0-17.68 14.336-32 32-32h223.552c17.632 0 31.935 14.256 32 31.904l1.008 319.664h254.992v-319.568c0-17.68 14.32-32 32-32h223.472c17.68 0 32 14.32 32 32v478.992l42.992-45.040c6.288-6.528 14.688-9.84 23.089-9.84 7.968 0 15.968 2.944 22.16 8.944 12.736 12.224 13.152 32.48 0.929 45.231zM863.535 483.851v-504.831h-159.472v319.552c0 17.68-14.32 32-32 32h-318.88c-17.632 0-31.935-14.256-32-31.904l-1.008-319.664h-159.664v504.848c0 2.64-0.416 5.168-1.008 7.632l353.76 368.624 351.424-368.208c-0.688-2.592-1.152-5.264-1.152-8.048z" />
<glyph unicode="graduation" glyph-name="graduation" d="M990.848 242.363v258.144l16.096 8.496c10.464 5.44 17.056 16.225 17.184 28.032 0.128 11.776-6.256 22.688-16.592 28.368l-481.44 257.6c-9.632 5.28-21.28 5.248-30.977-0.096l-478.8-257.92c-10.192-5.68-16.496-16.464-16.432-28.16s6.496-22.4 16.816-27.969l210.384-111.984c-2.64-4.656-4.271-9.968-4.271-15.695v-270.784c0-9.12 3.904-17.84 10.721-23.904 6.944-6.16 73.44-60.096 276.752-60.096 202.592 0 270.88 50.976 278 56.783 7.44 6.064 11.744 15.152 11.744 24.784v277.728c0 4.496-0.944 8.769-2.608 12.641l129.424 68.368v-224.512c-18.976-11.103-31.84-31.472-31.84-55.023 0-35.344 28.656-64 64-64s64 28.656 64 64c0 23.696-13.040 44.144-32.16 55.2zM736.031 126.299c-25.152-12.096-91.712-35.904-225.744-35.904-134.88 0-199.936 25.344-223.472 37.536v237.136l207.808-110.624c4.72-2.56 9.968-3.84 15.184-3.84 5.088 0 10.192 1.216 14.816 3.664l211.408 111.664v-239.632zM510.063 318.857l-411.6 218.561 412.32 220.976 413.6-220.336z" />
<glyph unicode="energy" glyph-name="energy" d="M595.344 873.947v0zM595.344 873.947l-72.207-379.377 261.584-0.88-356.064-514.304 72.208 417.376-261.568 0.912zM595.393 937.946c-1.728 0-3.455-0.063-5.151-0.19-11.296-0.912-18.784-4.688-27.664-10.656-4.928-3.28-9.439-7.28-13.392-11.937-1.168-1.376-2.272-2.816-3.297-4.288l-358.608-474.608c-14.16-19.408-16.24-45.024-5.36-66.433 10.864-21.408 32.832-34.977 56.912-35.152l184.736-1.344-58.080-342.192c-5.52-29.408 10.16-58.721 37.76-70.528 8.224-3.536 16.863-5.216 25.392-5.216 20.112 0 36.641 9.408 49.041 26.4l359.056 514.304c14.16 19.408 16.225 45.057 5.36 66.433-10.864 21.408-32.832 34.977-56.912 35.152l-184.736 0.32 57.456 300.88c1.2 4.848 1.824 9.872 1.824 15.056 0 34.624-27.568 62.848-62.064 63.968-0.768 0.032-1.52 0.032-2.271 0.032v0z" />
<glyph unicode="emotsmile" glyph-name="emotsmile" d="M781.264 331.515c-16.256 7.28-35.089-0.064-42.257-16.192-0.656-1.424-66.128-144.208-229.439-146.128-1.008 0-2-0.032-3.008-0.032-153.664 0-219.937 140.368-222.688 146.4-7.312 16-26.191 23.12-42.319 15.872-16.096-7.28-23.248-26.208-15.968-42.336 3.408-7.568 85.376-183.937 280.848-183.937 1.28 0 2.592 0.032 3.872 0.032 203.872 2.4 283.84 176.656 287.12 184.064 7.248 16.16-0.032 35.072-16.16 42.256zM511.999 938.666c-282.784 0-512-229.216-512-512s229.216-512 512-512 512 229.216 512 512-229.216 512-512 512zM511.999-21.334c-247.024 0-448 200.976-448 448s200.976 448 448 448 448-200.976 448-448-200.976-448-448-448zM351.503 458.842c35.264 0 63.84 28.592 63.84 63.824s-28.576 63.824-63.84 63.824c-35.28 0-63.84-28.592-63.84-63.824s28.56-63.824 63.84-63.824zM671.503 458.842c35.264 0 63.84 28.592 63.84 63.824s-28.576 63.824-63.84 63.824c-35.28 0-63.84-28.592-63.84-63.824s28.56-63.824 63.84-63.824z" />
<glyph unicode="directions" glyph-name="directions" d="M1017.060 752.603l-99.696 111.343c-6.064 6.848-14.784 10.752-23.937 10.752h-350.256v33.968c0 16.56-14.336 30-32 30s-32-13.44-32-30v-33.968h-255.808c-17.68 0-32-14.32-32-32v-223.664c0-17.68 14.32-32 32-32h255.808v-64.096h-348.592c-9.152 0-17.872-3.904-23.936-10.752l-99.68-113.312c-10.752-12.128-10.752-30.368 0-42.496l99.68-112.288c6.112-6.848 14.784-9.744 23.936-9.744h348.592v-289.68c0-16.56 14.336-30 32-30s32 13.44 32 30v289.68h256.464c17.68 0 32 14.32 32 32v224.608c0 17.68-14.32 32-32 32h-256.464v64.096h350.256c9.152 0 17.872 3.904 23.937 10.752l99.696 112.32c10.736 12.112 10.736 30.352 0 42.481v0.001zM767.647 298.346h-622.688l-71.28 79.28 71.28 81.312h622.688v-160.592zM879.039 651.034h-623.68v159.664h623.68l71.28-79.344z" />
<glyph unicode="diamond" glyph-name="diamond" d="M1018.72 643.195l-139.872 267.442c-8.16 15.6-29.264 28.352-46.848 28.352h-321.936c-0.352 0.016-0.703 0.111-1.055 0.127-0.288 0-0.561-0.112-0.849-0.128h-316.16c-17.6 0-38.752-12.72-47.024-28.256l-139.504-262.288c-8.288-15.536-6.624-39.937 3.632-54.257l480.016-669.152c5.152-7.184 12-10.815 18.832-10.815 6.784 0 13.584 3.536 18.768 10.592l487.904 664.256c10.384 14.192 12.256 38.544 4.096 54.128zM942.367 651.038h-171.456l68.656 196.608zM575.343 874.99h205.968l-63.888-182.928zM668.238 651.038h-297.647l140.672 202.096zM313.887 681.582l-64.177 193.408h198.816zM680.75 587.038l-172.032-492.544-163.456 492.544h335.488zM436.926 107.582l-343.936 479.456h184.832zM748.542 587.038h185.168l-352.976-480.56zM188.478 856.254l68.096-205.216h-177.248z" />
<glyph unicode="cutlery" glyph-name="cutlery" d="M684 938.667c-15.2 0-14.336 0-32 0s-32-14.336-32-32v-960c0-17.664 14.336-32 32-32s32 14.336 32 32v416h192c0 376.96-192 576-192 576zM684 842.667c0 0 121.791-214.176 128-416h-128v416zM436 938.667c-17.664 0-32-14.336-32-32v-224c0-45.024-26.784-75.392-64-89.665v313.665c0 17.664-14.336 32-32 32s-32-14.336-32-32v-313.665c-37.216 14.273-64 44.64-64 89.665v224c0 17.664-14.336 32-32 32s-32-14.336-32-32v-224c0-77.408 54.977-141.952 128-156.8v-579.2c0-17.664 14.336-32 32-32s32 14.336 32 32v579.2c73.023 14.816 128 79.392 128 156.8v224c0 17.664-14.336 32-32 32z" />
<glyph unicode="cup" glyph-name="cup" d="M832.56 522.875c-8.336 0-35.202 0.16-64.306 0.368l0.112 63.968c0 35.344-28.656 64-64 64l-640.496 0.16c-35.344 0-64-28.656-64-64v-480.944c0-106.032 85.968-192 192-192h384.656c106.032 0 191.008 85.968 191.008 192l0.064 32.848c29.024-0.224 58.608-0.399 64.977-0.399 105.776 0 191.568 85.040 191.568 191.072-0.016 106.048-85.808 192.928-191.584 192.928zM703.533 106.427c0-70.592-56.399-128-127.008-128h-384.656c-70.592 0-128 57.408-128 128l-0.096 480.944 640.592-0.192zM832.559 201.946c-6.352 0-35.888 0.191-64.863 0.399l0.448 256.816c29.12-0.208 56.048-0.368 64.399-0.368 73.12 0 128.624-54.544 128.624-127.84s-55.488-129.008-128.608-129.008zM575.87 714.905c17.664 0 32 14.336 32 32v160c0 17.664-14.336 32-32 32s-32-14.336-32-32v-160c0-17.68 14.336-32 32-32zM191.87 714.905c17.664 0 32 14.336 32 32v160c0 17.664-14.336 32-32 32s-32-14.336-32-32v-160c0-17.68 14.336-32 32-32zM383.87 714.905c17.664 0 32 14.336 32 32v160c0 17.664-14.336 32-32 32s-32-14.336-32-32v-160c0-17.68 14.336-32 32-32z" />
<glyph unicode="crescent-moon-phase-outlined-shape" glyph-name="crescent-moon-phase-outlined-shape" d="M520.192 426.667c0 220.832 143.328 408.448 343.808 480.288-56.223 20.159-116.705 31.712-180.096 31.712-289.345 0-523.904-229.248-523.904-512 0-282.784 234.559-512 523.904-512 63.391 0 123.873 11.552 180.096 31.712-200.48 71.84-343.808 259.456-343.808 480.288zM615.359-21.333c-158.176 11.52-389.856 200.576-389.856 448s226.72 434.144 389.888 448c49.056 4.161 23.137 4 68.545 0-106.784-67.296-229.024-254.785-229.024-448s88.895-371.808 229.023-448c-43.167-4-21.6-3.424-68.576 0z" />
<glyph unicode="calender" glyph-name="calender" d="M960 842.779l-256.224-0.001v63.776c0 17.68-14.32 32-32 32s-32-14.32-32-32v-63.76h-256v63.76c0 17.68-14.32 32-32 32s-32-14.32-32-32v-63.76h-255.776c-35.344 0-64-28.656-64-64v-800c0-35.344 28.656-64 64-64h896c35.344 0 64 28.656 64 64v800c0 35.328-28.656 63.984-64 63.984zM960-21.206l-896 0.001v800h255.776v-32.24c0-17.68 14.32-32 32-32s32 14.32 32 32v32.224h256v-32.24c0-17.68 14.32-32 32-32s32 14.32 32 32v32.24h256.224v-799.984zM736 426.779h64c17.664 0 32 14.336 32 32v64c0 17.664-14.336 32-32 32h-64c-17.664 0-32-14.336-32-32v-64c0-17.664 14.336-32 32-32zM736 170.795h64c17.664 0 32 14.32 32 32v64c0 17.664-14.336 32-32 32h-64c-17.664 0-32-14.336-32-32v-64c0-17.696 14.336-32 32-32zM544 298.795h-64c-17.664 0-32-14.336-32-32v-64c0-17.68 14.336-32 32-32h64c17.664 0 32 14.32 32 32v64c0 17.648-14.336 32-32 32zM544 554.779h-64c-17.664 0-32-14.336-32-32v-64c0-17.664 14.336-32 32-32h64c17.664 0 32 14.336 32 32v64c0 17.68-14.336 32-32 32zM288 554.779h-64c-17.664 0-32-14.336-32-32v-64c0-17.664 14.336-32 32-32h64c17.664 0 32 14.336 32 32v64c0 17.68-14.336 32-32 32zM288 298.795h-64c-17.664 0-32-14.336-32-32v-64c0-17.68 14.336-32 32-32h64c17.664 0 32 14.32 32 32v64c0 17.648-14.336 32-32 32z" />
<glyph unicode="book-open" glyph-name="book-open" d="M952.080 937.115l-423.041-114.592c-10.752-2.88-34.096-2.848-44.815 0.16l-412.144 114.208c-36.784 10.128-72.416-16.4-72.416-54.273v-778.112c0-32.096 24.336-62.784 55.312-71.408l412.16-114.224c11.024-3.056 25.217-4.752 39.937-4.752 10.096 0 25.008 0.784 38.72 4.528l423.024 114.592c31.056 8.4 55.504 39.024 55.504 71.248v778.128c0.016 37.84-35.616 64.464-72.24 54.496zM479.999-18.276l-408.928 113.056c-3.088 0.848-7.408 6.496-7.408 9.712v768.032l403.472-111.536c3.904-1.088 8.288-1.936 12.864-2.655v-776.608zM960.335 104.491c0-3.152-5.184-8.655-8.256-9.503l-408.080-110.528v775.92c0.592 0.144 1.2 0.224 1.792 0.384l414.528 112.128v-768.4h0.016zM641.999 572.364c2.88 0 5.81 0.367 8.689 1.184l223.936 63.024c17.024 4.816 26.944 22.465 22.16 39.473s-22.561 26.88-39.473 22.16l-223.936-63.024c-17.024-4.816-26.944-22.465-22.16-39.473 3.968-14.128 16.815-23.344 30.783-23.344zM642.001 380.363c2.88 0 5.81 0.368 8.689 1.185l223.936 63.024c17.024 4.816 26.944 22.465 22.16 39.473s-22.561 26.88-39.473 22.16l-223.936-63.024c-17.024-4.816-26.944-22.465-22.16-39.457 3.968-14.128 16.815-23.36 30.783-23.361zM642.003 188.363c2.88 0 5.81 0.368 8.689 1.185l223.936 63.024c17.024 4.816 26.944 22.465 22.16 39.473s-22.561 26.88-39.473 22.16l-223.936-63.024c-17.024-4.816-26.944-22.465-22.16-39.473 3.968-14.112 16.815-23.345 30.783-23.345zM394.629 635.18l-223.934 63.025c-16.912 4.72-34.689-5.152-39.473-22.16s5.12-34.656 22.16-39.473l223.936-63.024c2.88-0.816 5.808-1.185 8.688-1.185 13.968 0 26.815 9.216 30.783 23.344 4.784 16.992-5.12 34.656-22.16 39.473zM394.631 443.181l-223.934 63.025c-16.912 4.72-34.689-5.152-39.473-22.16s5.12-34.656 22.16-39.473l223.936-63.024c2.88-0.816 5.808-1.185 8.688-1.185 13.968 0 26.815 9.216 30.783 23.344 4.784 16.992-5.12 34.656-22.16 39.473zM394.633 251.182l-223.934 63.025c-16.912 4.72-34.689-5.152-39.473-22.16s5.12-34.656 22.16-39.473l223.936-63.024c2.88-0.816 5.808-1.185 8.688-1.185 13.968 0 26.815 9.216 30.783 23.344 4.784 17.008-5.12 34.656-22.16 39.473z" />
<glyph unicode="book" glyph-name="book" d="M853.333 896h-576c-81.067 0-149.333-68.267-149.333-149.333v-640c0-81.067 68.267-149.333 149.333-149.333h576c25.6 0 42.667 17.067 42.667 42.667v853.333c0 25.6-17.067 42.667-42.667 42.667zM277.333 810.667h533.333v-554.667h-533.333c-21.333 0-42.667-4.267-64-17.067v507.733c0 34.133 29.867 64 64 64zM277.333 42.667c-34.133 0-64 29.867-64 64s29.867 64 64 64h533.333v-128h-533.333z" />
</font>
</defs>
</svg>
